<svg xmlns="http://www.w3.org/2000/svg" viewBox="0 0 120 120" role="img" aria-label="Female avatar with braids">
  <rect width="120" height="120" rx="24" fill="#f0ded6"/>
  <circle cx="60" cy="54" r="43" fill="#ffffff"/>
  <path d="M27 112c5-24 18-38 33-38s28 14 33 38z" fill="#8ecae6"/>
  <path d="M42 75h36v19H42z" fill="#f4b087"/>
  <circle cx="60" cy="55" r="26" fill="#f4b087"/>
  <path d="M35 57c-2-22 9-38 25-38s27 16 25 38c-8-11-15-17-25-17s-18 6-25 17z" fill="#c66f1b"/>
  <path d="M39 43c11-17 32-17 43 1-11-3-29-3-43-1z" fill="#e08a2f"/>
  <path d="M32 54c-10 14-10 33 1 47" fill="none" stroke="#c66f1b" stroke-width="9" stroke-linecap="round"/>
  <path d="M88 54c10 14 10 33-1 47" fill="none" stroke="#c66f1b" stroke-width="9" stroke-linecap="round"/>
  <circle cx="50" cy="56" r="5" fill="#2d1720"/>
  <circle cx="70" cy="56" r="5" fill="#2d1720"/>
  <circle cx="48" cy="54" r="2" fill="#ffffff"/>
  <circle cx="68" cy="54" r="2" fill="#ffffff"/>
  <path d="M51 72c7 7 13 7 20 0" fill="none" stroke="#c2185b" stroke-width="4" stroke-linecap="round"/>
  <circle cx="42" cy="66" r="4" fill="#f06f8e" opacity=".65"/>
  <circle cx="78" cy="66" r="4" fill="#f06f8e" opacity=".65"/>
  <circle cx="30" cy="88" r="6" fill="#d81b60"/>
  <circle cx="90" cy="88" r="6" fill="#d81b60"/>
  <path d="M43 85h34" stroke="#ffffff" stroke-width="4" stroke-linecap="round" opacity=".85"/>
</svg>
